<svg
        width="252"
        height="45"
        fill="none"
        xmlns="http://www.w3.org/2000/svg"
        >
<path
d="M54.08 41.367c-2.313 0-4.159-.75-5.52-2.247-1.363-1.498-2.145-3.53-2.354-6.087l2.297-.654c.17 2.462.741 4.24 1.708 5.33.968 1.092 2.29 1.642 3.958 1.642 1.499 0 2.66-.414 3.473-1.235.814-.829 1.225-1.992 1.225-3.514 0-1.043-.346-2.127-1.047-3.258-.702-1.132-1.798-2.31-3.297-3.562l-3.425-2.876c-1.467-1.243-2.539-2.43-3.216-3.561-.685-1.132-1.023-2.415-1.023-3.865 0-1.346.282-2.477.846-3.386A5.538 5.538 0 0150.058 12c1.008-.486 2.168-.733 3.498-.733 2.217 0 3.869.693 4.957 2.071 1.088 1.379 1.668 3.235 1.74 5.554l-1.99.605c-.032-1.514-.25-2.725-.637-3.633-.395-.908-.918-1.57-1.587-1.968-.661-.406-1.443-.605-2.322-.605-1.297 0-2.345.326-3.143.988-.798.653-1.2 1.625-1.2 2.908 0 1.075.209 2.015.636 2.804.427.789 1.217 1.713 2.378 2.749l3.522 3.083c.886.741 1.74 1.53 2.555 2.375A11.67 11.67 0 0160.479 31c.524 1.028.79 2.247.79 3.665 0 1.418-.298 2.621-.894 3.61a5.892 5.892 0 01-2.507 2.294c-1.072.542-2.345.805-3.804.805l.016-.008zM63.945 7.88V3.235H66.7V7.88h-2.756zm0 33.033V11.72H66.7v29.193h-2.756zM76.099 41.367c-1.193 0-2.233-.271-3.12-.805a5.556 5.556 0 01-2.07-2.247c-.492-.956-.742-2.063-.742-3.306 0-1.243.161-2.335.484-3.26.322-.923.91-1.792 1.765-2.596.854-.805 2.07-1.658 3.65-2.55 1.588-.892 3.635-1.928 6.158-3.107v-2.072c0-2.12-.129-3.768-.387-4.948-.258-1.179-.685-2-1.273-2.477-.596-.47-1.402-.71-2.426-.71-.782 0-1.531.136-2.249.407-.717.27-1.305.796-1.765 1.593-.46.789-.693 1.96-.693 3.514v.757h-2.66c0-2.797.573-4.876 1.71-6.239 1.144-1.362 3.054-2.047 5.746-2.047 2.482 0 4.223.773 5.214 2.326.992 1.546 1.483 4.056 1.483 7.53v14.7c0 .27 0 .78.024 1.537l.049 2.199c.016.709.04 1.163.08 1.362h-2.353c-.073-.709-.153-1.45-.258-2.222-.105-.773-.17-1.331-.201-1.666-.444 1.211-1.21 2.24-2.297 3.084-1.089.844-2.386 1.258-3.885 1.258l.016-.015zm.66-2.223c.855 0 1.62-.191 2.298-.582a7.165 7.165 0 001.837-1.514 8.786 8.786 0 001.33-1.992v-9.592c-1.805.94-3.312 1.753-4.521 2.422-1.21.677-2.16 1.314-2.861 1.92-.702.605-1.201 1.29-1.508 2.047-.306.757-.459 1.674-.459 2.75 0 1.752.411 2.947 1.225 3.585.814.637 1.7.956 2.66.956zM88.462 40.913V11.72h2.555v3.083c.951-1.147 2.023-2.031 3.216-2.653a7.965 7.965 0 013.731-.932c.992 0 1.919.27 2.781.805.87.542 1.475 1.57 1.813 3.083.992-1.243 2.096-2.207 3.321-2.876a7.915 7.915 0 013.885-1.012 5.21 5.21 0 012.353.558c.75.374 1.362 1.036 1.838 1.992.475.956.717 2.318.717 4.063v23.082h-2.603V17.774c0-1.888-.306-3.131-.919-3.736-.613-.606-1.362-.909-2.249-.909-1.055 0-2.111.31-3.167.932-1.056.622-2.047 1.458-2.966 2.502.032.168.056.359.081.582.016.223.024.446.024.685v23.082h-2.604V17.774c0-1.888-.306-3.131-.918-3.736-.613-.606-1.362-.909-2.249-.909-1.023 0-2.063.31-3.119.932-1.056.622-2.047 1.443-2.966 2.446v24.397h-2.555v.008zM125.102 41.367c-1.943 0-3.45-.422-4.522-1.26-1.072-.844-1.821-2.087-2.248-3.736-.428-1.65-.637-3.689-.637-6.11v-7.88c0-2.423.209-4.462.637-6.112.427-1.649 1.176-2.892 2.248-3.736 1.072-.845 2.579-1.267 4.522-1.267 1.942 0 3.497.422 4.569 1.267 1.072.844 1.822 2.08 2.249 3.713.427 1.633.637 3.68.637 6.134v7.88c0 2.422-.21 4.462-.637 6.111-.427 1.65-1.177 2.892-2.249 3.737-1.072.844-2.595 1.259-4.569 1.259zm0-2.024c1.426 0 2.482-.359 3.167-1.084.677-.725 1.112-1.76 1.306-3.107.185-1.346.282-2.948.282-4.796v-8.08c0-1.887-.097-3.489-.282-4.82-.186-1.33-.621-2.358-1.306-3.083-.685-.725-1.741-1.083-3.167-1.083-1.427 0-2.475.358-3.144 1.083-.661.725-1.088 1.753-1.273 3.083-.185 1.331-.282 2.94-.282 4.82v8.08c0 1.848.097 3.45.282 4.796.185 1.347.612 2.382 1.273 3.107.661.725 1.709 1.084 3.144 1.084zM144.203 41.367c-2.354 0-4.127-.82-5.336-2.478-1.209-1.65-1.813-4.295-1.813-7.928v-8.94c0-2.023.234-3.84.693-5.457.459-1.617 1.201-2.9 2.225-3.864 1.023-.956 2.401-1.442 4.134-1.442 1.056 0 2.031.207 2.942.63a10.15 10.15 0 012.474 1.64V0h6.948v40.913h-6.948V38.84a10.173 10.173 0 01-2.506 1.84 6.086 6.086 0 01-2.813.686zm2.555-4.749c.37 0 .798-.087 1.281-.255a8.598 8.598 0 001.483-.709V16.923a7.433 7.433 0 00-1.33-.685 4.079 4.079 0 00-1.483-.28c-.991 0-1.676.447-2.071 1.34-.395.892-.588 1.975-.588 3.258v10.907c0 .98.064 1.849.201 2.63.137.772.403 1.386.79 1.84.395.454.959.685 1.709.685h.008zM168.624 41.367c-2.217 0-4.022-.415-5.416-1.235-1.395-.821-2.426-2.04-3.095-3.633-.661-1.602-1-3.53-1-5.785v-8.788c0-2.326.331-4.278 1-5.856.661-1.585 1.7-2.78 3.119-3.585 1.41-.805 3.207-1.211 5.392-1.211 2.353 0 4.183.438 5.488 1.314 1.314.877 2.249 2.144 2.813 3.817.564 1.673.846 3.697.846 6.087v4.143H166.02v5.76c0 .94.097 1.721.282 2.327.186.605.484 1.044.895 1.314.411.271.903.407 1.483.407.613 0 1.104-.144 1.483-.43.371-.287.645-.71.814-1.26.169-.557.258-1.25.258-2.095v-2.422h6.488v1.968c0 2.964-.75 5.235-2.249 6.82-1.499 1.586-3.78 2.374-6.842 2.374l-.008-.031zm-2.604-18.134h5.215v-2.78c0-1.013-.089-1.825-.258-2.447-.169-.621-.443-1.076-.814-1.362-.379-.287-.903-.43-1.58-.43-.612 0-1.104.15-1.483.454-.378.302-.644.804-.814 1.513-.169.71-.258 1.721-.258 3.028v2.024h-.008zM180.43 40.912V11.72h6.948v2.932c1.056-1.012 2.168-1.825 3.345-2.446a8.013 8.013 0 013.804-.932c1.225 0 2.2.295 2.909.884.718.59 1.241 1.37 1.588 2.35.338.98.508 2.04.508 3.18V40.92h-6.948V19.042c0-.877-.137-1.546-.411-2.024-.274-.47-.798-.709-1.587-.709-.476 0-1 .136-1.556.406-.564.271-1.112.606-1.66 1.012v23.185h-6.948.008zM211.138 41.263c-1.87 0-3.345-.302-4.417-.908a5.01 5.01 0 01-2.273-2.63c-.443-1.147-.661-2.509-.661-4.086V16.262h-2.965v-4.55h2.965V2.98h6.996v8.74h4.497v4.55h-4.497V33.04c0 1.012.218 1.729.661 2.143.443.422 1.104.63 1.991.63.371 0 .741-.016 1.096-.048.355-.032.709-.064 1.048-.104v5.25c-.581.065-1.25.144-2.015.232-.766.08-1.58.127-2.426.127v-.008zM217.674 40.913V11.72h6.947v4.494c1.024-1.721 2.048-2.956 3.063-3.713 1.024-.757 2.144-1.14 3.369-1.14a5.345 5.345 0 011.08.104v7.123a9.603 9.603 0 00-1.354-.43 6.387 6.387 0 00-1.507-.175 4.96 4.96 0 00-2.507.653c-.749.438-1.467 1.163-2.144 2.175v20.102h-6.947zM242.45 41.367c-2.144 0-3.917-.399-5.312-1.187-1.394-.79-2.442-1.944-3.143-3.458-.701-1.514-1.048-3.347-1.048-5.506v-9.8c0-2.15.347-3.991 1.048-5.505.701-1.514 1.749-2.67 3.143-3.458 1.395-.789 3.168-1.187 5.312-1.187 2.143 0 3.925.398 5.335 1.187 1.41.789 2.466 1.944 3.167 3.458.702 1.514 1.048 3.354 1.048 5.505v9.8c0 2.16-.346 3.992-1.048 5.506-.701 1.514-1.757 2.669-3.167 3.458-1.41.788-3.192 1.187-5.335 1.187zm.048-4.749c.782 0 1.362-.215 1.733-.653.37-.438.612-1.036.717-1.793a18.35 18.35 0 00.153-2.502V20.962c0-.908-.048-1.737-.153-2.478-.105-.74-.338-1.338-.717-1.792-.379-.454-.951-.686-1.733-.686-.782 0-1.362.232-1.741.686-.379.454-.621 1.051-.741 1.792-.121.741-.178 1.57-.178 2.478V31.67c0 .909.057 1.745.178 2.502.12.757.362 1.355.741 1.793.371.438.951.653 1.741.653z"
fill="#231F20"
/>
<path
d="M0 26.125c0 8.222 5.311 15.21 12.734 17.8v-35.6C5.311 10.916 0 17.904 0 26.126z"
fill="#2F8E6F"
/>
<path
d="M38.195 26.125c0-8.222-5.312-15.21-12.735-17.8v35.6c7.415-2.59 12.735-9.578 12.735-17.8z"
fill="#ED4C5C"
/>
<path
d="M12.734 43.924A19.335 19.335 0 0019.1 45c2.233 0 4.376-.383 6.367-1.076V8.326a19.336 19.336 0 00-6.367-1.076c-2.232 0-4.376.383-6.367 1.076v35.598z"
fill="#fff"
/>
        </svg>
